# xmcd
#
# Track frame offsets:
# 150
# 14511
# 30901
# 45686
# 62966
# 75427
# 91493
# 105324
# 124975
# 138532
# 151339
#
# Disc length: 2222 seconds
#
#
# Revision: 0
# Processed by: cddbd v1.5.2PL0 Copyright (c) Steve Scherf et al.
# Submitted via: FreeRIP 2.944 
#
DISCID=8608ac0b
DTITLE=C.W.Stoneking - King Hokum
DYEAR=2006
DGENRE=Blues
TTITLE0=Way Out in the World
TTITLE1=Don't go Dandin down the Darktown Strutter's Ball
TTITLE2=She's a Bread Baker
TTITLE3=Dodo Blues
TTITLE4=On a Christmas Day
TTITLE5=Charley Bostocks Blues
TTITLE6=Goin the Country
TTITLE7=Bad Luck Everywhere You Go
TTITLE8=Rich Man's Blues
TTITLE9=You took My Thing and Put It in Your Place
TTITLE10=Handyman Blues
EXTD=
EXTT0=
EXTT1=
EXTT2=
EXTT3=
EXTT4=
EXTT5=
EXTT6=
EXTT7=
EXTT8=
EXTT9=
EXTT10=
PLAYORDER=
